<?xml version="1.0" encoding="UTF-8" standalone="no"?>
<!DOCTYPE svg PUBLIC "-//W3C//DTD SVG 1.1//EN" "http://www.w3.org/Graphics/SVG/1.1/DTD/svg11.dtd">
<svg width="100%" height="100%" viewBox="0 0 502 502" version="1.1" xmlns="http://www.w3.org/2000/svg" xmlns:xlink="http://www.w3.org/1999/xlink" xml:space="preserve" xmlns:serif="http://www.serif.com/" style="fill-rule:evenodd;clip-rule:evenodd;stroke-linejoin:round;stroke-miterlimit:2;">
    <g transform="matrix(1,0,0,1,0,-7.27812)">
        <g id="Darks" transform="matrix(1,0,0,1,0,79.0505)">
            <path d="M468.842,346.015C463.746,348.636 458.122,349.244 454.415,347.574C450.31,345.725 447,341.355 447,334.887L448.303,334.387C449.019,334.112 451.201,334.553 453.152,335.368C456.295,336.682 456.942,336.678 458.854,335.339C464.458,331.414 465.309,322.957 461.064,313.361C457.185,304.592 438.196,287.202 412.194,268.606C396.662,257.498 377.737,245.104 365.119,238.497L364.5,239.116C364.16,239.456 364.768,242.433 365.85,245.731C369.031,255.422 370.287,265.858 369.808,278.629C369.273,292.892 367.925,296.292 362.113,298.034C358.586,299.09 356.809,298.771 342.369,294.483C306.618,283.869 300.695,281.615 289,274.179C276.882,266.473 265.004,253.653 257.341,240.01C255.778,237.228 254.05,234.964 253.5,234.98C252.95,234.995 250.577,238.495 248.227,242.756C236.249,264.473 220.455,276.807 193.728,285.311C164.703,294.548 149.759,298.949 147.428,298.949C143.29,298.949 139.117,294.133 137.995,288.063C136.514,280.046 136.791,263.9 138.559,255.157C141.535,240.445 148.097,225.174 156.502,213.394C160.826,207.335 177.299,190.949 180,190.949C180,190.949 176.422,186.738 172.072,184.646C162.481,180.033 149.119,170.236 139,160.397C133.613,155.159 129.809,152.407 125.5,150.632C82.55,132.936 80.405,131.866 65.229,120.572C53.767,112.041 47.446,104.623 41.956,93.258C39.78,88.753 37.582,84.809 36.145,83.921L33.322,86.352C30.703,88.607 30.5,89.311 30.5,96.116C30.5,100.149 30.136,104.012 29.691,104.699C28.397,106.698 25.111,106.151 22.455,103.495C20.295,101.335 20.001,100.164 20.009,93.745C20.017,87.514 20.447,85.703 22.952,81.335C27.147,74.022 34.081,68.21 39.6,67.382C47.312,66.226 52.635,70.026 50.055,74.846C46.98,80.592 50.566,87.398 60.342,94.374C69.48,100.895 79.695,105.406 94.42,109.424C101.527,111.363 107.876,112.949 109.721,112.949L109.611,107.035C109.517,102.03 109.885,100.701 112,98.399C118.138,91.718 132.853,88.49 153.894,89.209C175.255,89.939 190.62,94.439 204.68,104.082C206.979,105.659 209.362,106.949 211.092,106.949L210.43,97.199C209.152,78.38 214.099,58.671 224.297,41.949C232.72,28.139 249.756,9.949 254.269,9.949C257.987,9.949 265.171,16.681 274.012,28.449C282.858,40.223 286.207,45.843 289.804,54.949C294.863,67.758 296.471,76.842 296.5,106.949L296.942,106.949C297.185,106.949 300.463,105.12 304.227,102.884C312.1,98.207 328.364,91.937 338.754,89.574C351.734,86.621 376.311,88.34 386.674,92.924C399.333,98.523 399.098,106.279 385.459,132.942C373.507,156.309 358.794,171.465 340.229,179.536C335.99,181.379 332.376,183.321 331.878,184.814L333.751,185.816C334.78,186.367 340.32,188.585 346.061,190.745C358.841,195.553 385.665,208.869 400.5,217.768C424.214,231.993 452.148,255.393 464.014,270.972C471.385,280.65 478.258,293.49 481.052,302.803C482.88,308.896 483.177,311.809 482.786,319.803C482.127,333.27 477.799,341.407 468.842,346.015Z" style="fill:rgb(31,21,11);fill-rule:nonzero;"/>
        </g>
        <g id="Pod-Whites" serif:id="Pod Whites" transform="matrix(1,0,0,1,0,79)">
            <path d="M96.5,120.201C93.2,119.096 88.764,117.447 86.642,116.537L82.784,114.883C84.496,113.17 110.12,122.766 111.467,124.947L112.118,126C110.089,125.932 107.925,125.079 106,124.061L96.5,120.201Z" style="fill:rgb(241,242,233);fill-rule:nonzero;"/>
            <path d="M459.471,281.958C457.061,278.481 450.823,272.421 430.512,253.827C426.865,250.488 420.898,245.808 415.391,241.97C399.237,230.708 384.475,221.258 375.75,216.593C369.837,213.431 365,210.676 365,210.471L365,210.097C376.876,215.483 386.516,220.738 393.5,225.381C397.9,228.306 404.189,232.414 407.476,234.51C413.624,238.43 423.753,246.195 438.865,258.573C448.155,266.182 458.692,277.494 461.386,282.75L463.051,286C462.447,286 461.011,284.181 459.471,281.958Z" style="fill:rgb(241,242,233);fill-rule:nonzero;"/>
            <path d="M428.955,269.367C423.236,264.63 417.418,260.027 416.028,259.137C414.638,258.248 411.475,255.975 409,254.087L404.5,250.654C409.342,252.433 429.072,266.592 435,271.898L440.5,276.821L439.355,277.979L428.955,269.367Z" style="fill:rgb(241,242,233);fill-rule:nonzero;"/>
            <path d="M393.894,243.673C391.477,241.844 385.9,237.929 381.5,234.975C377.1,232.021 371.681,228.215 369.457,226.518C367.233,224.821 362.397,221.873 358.711,219.966C355.024,218.06 352.006,216.163 352.004,215.75L352,215C354.616,215 365.341,221.26 376,228.555C387.493,236.421 400,245.82 400,246.591L400,247C398.673,247 396.31,245.503 393.894,243.673Z" style="fill:rgb(241,242,233);fill-rule:nonzero;"/>
            <path d="M347.603,203.482C342.709,201.625 338.232,199.632 337.653,199.053L336.6,198C339.011,198 343.938,200.003 349.105,202.451L358.5,206.903C356.95,206.868 352.496,205.339 347.603,203.482Z" style="fill:rgb(241,242,233);fill-rule:nonzero;"/>
            <path d="M102.5,132.875C101.389,132.348 100.27,131.809 99.16,131.267C92.031,127.785 85.273,124.166 83.252,122.714L79.003,119.663L79.633,119.034C101.23,130.358 110.538,134.467 114.251,135.472C117.964,136.476 121.507,137.905 122.123,138.649L123.245,140C118.793,139.989 110.75,136.786 102.5,132.875Z" style="fill:rgb(241,242,233);fill-rule:nonzero;"/>
        </g>
        <g id="Whites" transform="matrix(1,0,0,1,0,103.001)">
            <path d="M350,260.583C347.525,259.865 341.225,258.054 336,256.558C310.562,249.274 302.068,245.626 291.25,237.34C282.264,230.458 276.338,223.942 270.616,214.654C265.47,206.303 261.165,194.435 262.717,192.882C263.278,192.322 267.762,191.58 271.58,190.125C277.871,187.728 278.035,185.426 279.136,185.066C281.682,184.233 301.786,204.944 323.711,226.966C334.184,237.485 339.401,242.06 340.461,241.653L342,241.062C342,235.197 323.126,214.73 297.319,191.249C288.944,183.63 287.117,182.037 284.483,182.037L281.613,181.217C283.454,178.999 283.393,176.595 283.713,173.487C284.218,168.597 284.642,167.706 286.862,166.862C288.317,166.309 292.245,166.188 295.93,166.582C303.776,167.422 313.154,171.992 324.396,180.453C345.424,196.28 358.638,224.64 357.789,252.123L357.5,261.477C355.175,261.795 352.475,261.3 350,260.583ZM149.255,245.249C149.706,230.901 150.028,228.698 152.876,220.499C159.207,202.269 166.527,192.058 182.072,179.771C192.462,171.559 207.535,165.501 215.854,166.195L219.5,166.499C220.45,174.249 220.998,177.849 221.33,179.499C221.9,182.331 221.177,183.172 208.425,194.499C184.423,215.819 168,233.87 168,238.93L168,240.999C170.029,240.999 176.486,235.037 183.658,227.749C190.831,220.462 202.729,208.917 210.099,202.095C217.47,195.273 224.086,188.863 224.802,187.851L226.104,186.012C233.479,189.774 235.653,190.127 240.668,189.808L247,189.405C247,195.932 240.893,209.99 235.926,217.613C233.633,221.132 228,227.568 223.409,231.914C216.729,238.237 213.006,240.817 204.78,244.824C199.126,247.578 191.35,250.74 187.5,251.849C173.441,255.9 153.07,260.999 150.943,260.999L148.761,260.999L149.255,245.249ZM237.086,174.987C232.745,169.599 234.124,166.91 237.914,163.016C240.08,160.792 259.846,162.744 262.639,163.445C265.343,164.123 268.99,169.373 268.996,172.594C269.001,175.406 266.27,177.687 261.936,178.491C259.436,178.955 241.543,180.521 237.086,174.987ZM270.602,155.692C269.333,154.424 267.973,151.672 267.581,149.578C266.988,146.421 267.247,145.366 269.091,143.402C270.315,142.099 272.14,140.772 273.146,140.453C276.853,139.277 283,144.928 283,149.512C283,151.748 276.998,157.999 274.851,157.999C273.783,157.999 271.871,156.961 270.602,155.692ZM227.99,153.144C224.07,149.223 223.965,144.863 227.707,141.395C230.748,138.577 234.127,138.778 237.38,141.97C239.137,143.694 239.167,144.2 237.84,149.657L236.42,155.499C231.748,156.045 230.137,155.291 227.99,153.144ZM249.8,153.459C248.223,150 249.81,145.604 252.788,145.177L255.036,144.856C257.167,149.923 257.529,152.093 257.216,152.947C255.825,156.735 251.431,157.039 249.8,153.459ZM294.69,148.542C294.39,144.669 293.873,140.599 293.542,139.499L292.94,137.499C303.446,132.385 354.095,101.995 356.666,99.861C357.4,99.253 358,97.685 358,96.377L358,93.999C353.087,93.999 302.794,122.814 294.356,129.618L290.212,132.96C287.149,129.269 283.189,127.391 278.75,126.588L275,125.909C275,124.774 275.621,123.557 276.381,122.472C277.14,121.387 278.993,118.249 280.499,115.499C284.21,108.72 289.871,102.981 300,95.731C314.078,85.654 329.822,79.094 345.304,76.856C355.213,75.423 370.871,76.667 379.25,79.552L384,81.187C384,85.999 371.388,111.265 365.493,119.547C360.352,126.769 350.631,136.059 342.723,141.308C331.667,148.646 318.226,153.238 303.368,154.755L295.236,155.585L294.69,148.542ZM199.953,153.97C191.09,152.933 176.113,147.808 167.021,142.7C156.891,137.01 142.049,122.273 135.237,111.141C129.136,101.169 121.617,84.439 122.364,82.493C123.642,79.164 146.449,75.305 157.937,76.475C181.402,78.865 201.627,88.546 218.458,105.444C225.203,112.217 233.523,124.344 232.528,125.953C232.173,126.529 230.621,126.999 229.081,126.999C227.54,126.999 224.621,128.124 222.595,129.499C220.569,130.874 218.716,131.999 218.477,131.999C218.238,131.999 214.995,129.8 211.271,127.112C195.029,115.388 150.102,92.999 142.819,92.999L142,92.999C142,96.333 145.965,98.85 166.372,109.956C175.242,114.784 187.9,121.8 194.5,125.547C201.1,129.293 208.2,133.29 210.278,134.429L214.056,136.499C212.867,140.374 212.526,144.199 212.53,147.499C212.541,155.571 212.742,155.467 199.953,153.97ZM247.75,133.943C244.953,132.276 245.534,127.312 248.923,123.922C252.587,120.259 253.919,120.261 257.444,123.941C259.448,126.032 260.296,127.981 260.381,130.691L260.5,134.499C251.975,134.877 248.712,134.517 247.75,133.943ZM237.889,109.32C236.639,107.297 233.451,103.04 230.806,99.862C225.016,92.905 223.259,86.772 222.392,70.499C221.631,56.214 224.707,39.06 229.154,32.793C230.21,31.305 232.025,27.93 233.188,25.293C234.35,22.657 237.146,18.319 239.401,15.653C247.626,5.929 253.315,0 254.395,0.028C256.32,0.077 271.327,20.599 275.74,29.218C278.072,33.773 280.923,41.099 282.075,45.499C284.778,55.821 285.68,73.593 284.056,84.509C282.905,92.245 282.494,93.183 277.859,98.647C275.128,101.866 271.68,106.411 270.197,108.748C268.714,111.084 267.12,112.997 266.654,112.998C266.189,112.999 264.614,112.164 263.154,111.142C261.695,110.12 259.862,109.083 259.082,108.836L257.664,108.387C258.079,36.366 257.861,28.144 256.786,26.695L255.447,24.89C252.792,25.909 251.554,27.94 250.984,30.061C249.804,34.443 249.107,101.095 250.2,104.999L250.9,107.499C243.227,111.762 240.811,112.999 240.581,112.999C240.351,112.999 239.14,111.344 237.889,109.32Z" style="fill:rgb(241,242,233);fill-rule:nonzero;"/>
        </g>
    </g>
</svg>
