<?xml version="1.0" standalone="no"?>
<!DOCTYPE svg PUBLIC "-//W3C//DTD SVG 20010904//EN"
 "http://www.w3.org/TR/2001/REC-SVG-20010904/DTD/svg10.dtd">
<svg version="1.0" xmlns="http://www.w3.org/2000/svg"
 width="512.000000pt" height="512.000000pt" viewBox="0 0 512.000000 512.000000"
 preserveAspectRatio="xMidYMid meet">
<metadata>
Created by potrace 1.14, written by Peter Selinger 2001-2017
</metadata>
<g transform="translate(0.000000,512.000000) scale(0.100000,-0.100000)"
fill="#000000" stroke="none">
<path d="M0 2560 l0 -2560 2560 0 2560 0 0 2560 0 2560 -2560 0 -2560 0 0
-2560z m1643 2378 c59 -522 127 -1255 127 -1367 l0 -71 80 0 80 0 0 785 0 785
128 -1 c70 0 145 -3 167 -7 48 -9 37 31 140 -472 130 -636 196 -1031 196
-1170 0 -212 -101 -432 -280 -611 -94 -95 -110 -104 -366 -209 l-140 -58 3
-603 c1 -332 5 -898 9 -1257 l6 -652 -322 0 -321 0 -2 1256 -3 1257 -140 57
c-253 104 -270 114 -375 220 -133 134 -214 279 -256 456 -26 110 -14 261 45
599 48 273 180 940 219 1105 l17 75 40 7 c22 4 99 7 172 7 l132 1 -6 -785 -6
-785 80 0 80 0 6 128 c7 148 66 779 103 1097 14 121 28 253 31 293 l6 72 166
0 166 0 18 -152z m3127 -2378 l0 -2530 -320 0 -320 0 0 795 0 795 -470 0 -471
0 3 1053 4 1052 26 90 c64 217 132 381 210 502 85 133 356 401 495 490 106 67
377 183 550 234 87 26 196 47 251 48 l42 1 0 -2530z"/>
</g>
</svg>
